<svg width="93" height="47" viewBox="0 0 93 47" fill="none" xmlns="http://www.w3.org/2000/svg">
<circle cx="80.5" cy="23.5" r="5.5" fill="#B1F025"/>
<circle cx="22.5" cy="28.5" r="5.5" fill="#FE964D"/>
<path d="M24.04 13.56H14.6V38H10.08V13.56H0.6V9.6H24.04V13.56ZM37.9284 9.72H42.1284L45.6484 19.36L49.2084 9.72H53.4084L48.5284 22.36L52.7684 32.8L61.6084 9.6H66.5284L54.8884 38H51.0084L45.6884 25.28L40.3284 38H36.4084L24.8084 9.6H29.6884L38.5684 32.8L42.8084 22.36L37.9284 9.72ZM67.025 23.6C67.025 21.8667 67.3317 20.1733 67.945 18.52C68.5583 16.84 69.4517 15.32 70.625 13.96C71.825 12.5733 73.2783 11.48 74.985 10.68C76.6917 9.85333 78.625 9.44 80.785 9.44C83.345 9.44 85.5583 10.0267 87.425 11.2C89.2917 12.3467 90.6783 13.8267 91.585 15.64L88.065 18C87.5317 16.8533 86.8517 15.9467 86.025 15.28C85.225 14.6133 84.345 14.1467 83.385 13.88C82.4517 13.6133 81.5317 13.48 80.625 13.48C79.1317 13.48 77.825 13.7867 76.705 14.4C75.585 14.9867 74.6383 15.7733 73.865 16.76C73.1183 17.7467 72.545 18.8533 72.145 20.08C71.7717 21.3067 71.585 22.5333 71.585 23.76C71.585 25.12 71.8117 26.44 72.265 27.72C72.7183 28.9733 73.345 30.0933 74.145 31.08C74.9717 32.04 75.945 32.8 77.065 33.36C78.185 33.92 79.4117 34.2 80.745 34.2C81.6517 34.2 82.5983 34.04 83.585 33.72C84.5717 33.4 85.4783 32.9067 86.305 32.24C87.1583 31.5467 87.825 30.64 88.305 29.52L92.025 31.64C91.4383 33.0533 90.5183 34.2533 89.265 35.24C88.0383 36.2267 86.6517 36.9733 85.105 37.48C83.585 37.9867 82.0783 38.24 80.585 38.24C78.585 38.24 76.7583 37.8267 75.105 37C73.4517 36.1467 72.025 35.0267 70.825 33.64C69.625 32.2267 68.6917 30.6533 68.025 28.92C67.3583 27.16 67.025 25.3867 67.025 23.6Z" fill="black"/>
</svg>
